<svg viewBox="0 0 700 500" xmlns="http://www.w3.org/2000/svg">
  <rect width="700" height="500" fill="white"/>
  <line x1="70" y1="40" x2="70" y2="450" stroke="#111827" stroke-width="1.5" stroke-linecap="round"/>
  <line x1="70" y1="450" x2="660" y2="450" stroke="#111827" stroke-width="1.5" stroke-linecap="round"/>
  <line x1="70.0" y1="450" x2="70.0" y2="459" stroke="#111827" stroke-width="1.1"/>
  <line x1="168.3" y1="450" x2="168.3" y2="459" stroke="#111827" stroke-width="1.1"/>
  <line x1="266.7" y1="450" x2="266.7" y2="459" stroke="#111827" stroke-width="1.1"/>
  <line x1="365.0" y1="450" x2="365.0" y2="459" stroke="#111827" stroke-width="1.1"/>
  <line x1="463.3" y1="450" x2="463.3" y2="459" stroke="#111827" stroke-width="1.1"/>
  <line x1="561.7" y1="450" x2="561.7" y2="459" stroke="#111827" stroke-width="1.1"/>
  <line x1="660.0" y1="450" x2="660.0" y2="459" stroke="#111827" stroke-width="1.1"/>
  <line x1="62" y1="450.0" x2="70" y2="450.0" stroke="#111827" stroke-width="1.1"/>
  <line x1="62" y1="347.5" x2="70" y2="347.5" stroke="#111827" stroke-width="1.1"/>
  <line x1="62" y1="245.0" x2="70" y2="245.0" stroke="#111827" stroke-width="1.1"/>
  <line x1="62" y1="142.5" x2="70" y2="142.5" stroke="#111827" stroke-width="1.1"/>
  <polyline points="70.0,449.9 74.9,449.7 79.8,449.2 84.8,447.9 89.7,444.8 94.6,438.1 99.5,425.6 104.4,404.5 109.3,372.8 114.3,331.1 119.2,283.6 124.1,238.5 129.0,205.8 133.9,193.7 138.8,205.6 143.8,238.1 148.7,282.3 153.6,327.5 158.5,364.9 163.4,389.7 168.3,402.6 173.3,408.1 178.2,412.0 183.1,417.9 188.0,426.2 192.9,434.9 197.8,442.0 202.8,446.4 207.7,448.6 212.6,449.6 217.5,449.9 222.4,450.0 227.3,450.0 232.3,450.0 237.2,450.0 242.1,450.0 247.0,450.0 251.9,450.0 256.8,450.0 261.8,450.0 266.7,450.0 271.6,450.0 276.5,450.0 279.4,450.0 281.4,450.0 283.4,450.0 286.3,450.0 287.3,450.0 291.3,450.0 296.2,450.0 301.1,450.0 306.0,450.0 310.9,450.0 315.8,450.0 320.8,450.0 325.7,450.0 330.6,450.0 335.5,450.0 340.4,450.0 345.3,450.0 350.3,450.0 355.2,450.0 357.1,450.0 360.1,450.0 365.0,450.0 369.9,450.0 374.8,450.0 379.8,450.0 384.7,450.0 389.6,450.0 394.5,450.0 399.4,450.0 404.3,450.0 409.3,450.0 413.2,450.0 414.2,450.0 419.1,450.0 424.0,450.0 428.9,450.0 433.8,450.0 438.8,450.0 443.7,450.0 448.6,450.0 453.5,450.0 458.4,450.0 463.3,450.0 468.3,450.0 473.2,450.0 478.1,450.0 483.0,450.0 487.9,450.0 492.8,450.0 497.8,450.0 502.7,450.0 507.6,450.0 512.5,450.0 517.4,450.0 522.3,450.0 527.3,450.0 532.2,450.0 537.1,450.0 542.0,450.0 546.9,450.0 551.8,450.0 556.8,450.0 561.7,450.0 566.6,450.0 571.5,450.0 576.4,450.0 581.3,450.0 586.3,450.0 591.2,450.0 596.1,450.0 601.0,450.0 605.9,450.0 610.8,450.0 615.8,450.0 620.7,450.0 625.6,450.0 630.5,450.0 635.4,450.0 640.3,450.0 645.3,450.0 650.2,450.0 655.1,450.0 660.0,450.0" fill="none" stroke="#2166ac" stroke-width="2.1" stroke-linejoin="round" stroke-linecap="round"/>
  <polyline points="70.0,450.0 74.9,450.0 79.8,450.0 84.8,449.9 89.7,449.6 94.6,448.3 99.5,443.8 104.4,433.1 109.3,415.3 114.3,396.7 119.2,388.5 124.1,396.7 129.0,415.3 133.9,433.1 138.8,443.8 143.8,448.3 148.7,449.6 153.6,449.9 158.5,450.0 163.4,450.0 168.3,450.0 173.3,450.0 178.2,450.0 183.1,450.0 188.0,450.0 192.9,450.0 197.8,450.0 202.8,450.0 207.7,450.0 212.6,450.0 217.5,450.0 222.4,450.0 227.3,450.0 232.3,450.0 237.2,450.0 242.1,450.0 247.0,450.0 251.9,450.0 256.8,449.9 261.8,448.1 266.7,434.6 271.6,375.9 276.5,242.6 279.4,153.5 281.4,112.3 283.4,97.4 286.3,130.1 287.3,153.5 291.3,273.7 296.2,393.5 301.1,439.4 306.0,448.9 310.9,449.9 315.8,450.0 320.8,450.0 325.7,450.0 330.6,450.0 335.5,450.0 340.4,450.0 345.3,450.0 350.3,450.0 355.2,450.0 357.1,450.0 360.1,449.9 365.0,449.2 369.9,445.5 374.8,437.0 379.8,431.5 384.7,437.0 389.6,445.5 394.5,449.2 399.4,449.5 404.3,447.3 409.3,442.1 413.2,439.7 414.2,439.9 419.1,444.3 424.0,448.6 428.9,449.8 433.8,450.0 438.8,450.0 443.7,450.0 448.6,450.0 453.5,450.0 458.4,450.0 463.3,450.0 468.3,450.0 473.2,450.0 478.1,450.0 483.0,450.0 487.9,450.0 492.8,450.0 497.8,450.0 502.7,450.0 507.6,450.0 512.5,450.0 517.4,450.0 522.3,450.0 527.3,450.0 532.2,450.0 537.1,450.0 542.0,450.0 546.9,450.0 551.8,450.0 556.8,450.0 561.7,450.0 566.6,450.0 571.5,450.0 576.4,450.0 581.3,450.0 586.3,450.0 591.2,450.0 596.1,450.0 601.0,450.0 605.9,450.0 610.8,450.0 615.8,450.0 620.7,450.0 625.6,450.0 630.5,450.0 635.4,450.0 640.3,450.0 645.3,450.0 650.2,450.0 655.1,450.0 660.0,450.0" fill="none" stroke="#ca0020" stroke-width="2.1" stroke-linejoin="round" stroke-linecap="round"/>
  <polyline points="70.0,450.0 74.9,450.0 79.8,450.0 84.8,450.0 89.7,449.9 94.6,449.7 99.5,449.1 104.4,447.3 109.3,443.0 114.3,434.7 119.2,421.3 124.1,403.7 129.0,386.0 133.9,374.2 138.8,373.1 143.8,383.0 148.7,400.0 153.6,418.0 158.5,432.4 163.4,441.7 168.3,446.6 173.3,448.7 178.2,449.4 183.1,449.5 188.0,449.2 192.9,448.7 197.8,447.8 202.8,446.6 207.7,444.9 212.6,442.5 217.5,439.4 222.4,435.5 227.3,431.0 232.3,425.9 237.2,420.4 242.1,414.8 247.0,409.5 251.9,404.9 256.8,401.2 261.8,398.4 266.7,396.6 271.6,395.5 276.5,394.7 279.4,394.1 281.4,393.6 283.4,393.0 286.3,391.8 287.3,391.3 291.3,388.6 296.2,383.7 301.1,376.8 306.0,367.9 310.9,357.0 315.8,344.6 320.8,331.1 325.7,317.1 330.6,303.4 335.5,290.6 340.4,279.5 345.3,270.6 350.3,264.5 355.2,261.6 357.1,261.3 360.1,262.0 365.0,265.7 369.9,272.5 374.8,282.1 379.8,293.9 384.7,307.6 389.6,322.3 394.5,337.5 399.4,352.7 404.3,367.3 409.3,381.0 413.2,391.1 414.2,393.4 419.1,404.5 424.0,414.0 428.9,422.0 433.8,428.6 438.8,434.0 443.7,438.2 448.6,441.5 453.5,443.9 458.4,445.8 463.3,447.1 468.3,448.0 473.2,448.7 478.1,449.2 483.0,449.5 487.9,449.7 492.8,449.8 497.8,449.9 502.7,449.9 507.6,450.0 512.5,450.0 517.4,450.0 522.3,450.0 527.3,450.0 532.2,450.0 537.1,450.0 542.0,450.0 546.9,450.0 551.8,450.0 556.8,450.0 561.7,450.0 566.6,450.0 571.5,450.0 576.4,450.0 581.3,450.0 586.3,450.0 591.2,450.0 596.1,450.0 601.0,450.0 605.9,450.0 610.8,450.0 615.8,450.0 620.7,450.0 625.6,450.0 630.5,450.0 635.4,450.0 640.3,450.0 645.3,450.0 650.2,450.0 655.1,450.0 660.0,450.0" fill="none" stroke="#1a9850" stroke-width="2.1" stroke-linejoin="round" stroke-linecap="round"/>
</svg>