<svg xmlns="http://www.w3.org/2000/svg" viewBox="0 0 280 200">
  <rect width="280" height="200" fill="white"/>

  <!-- L-axis -->
  <line x1="28" y1="10" x2="28" y2="182" stroke="#374151" stroke-width="1.2"/>
  <line x1="28" y1="182" x2="268" y2="182" stroke="#374151" stroke-width="1.2"/>

  <!-- Pattern 1 — black, baseline y=165 -->
  <!-- Sharp XRD peaks at 2θ≈25°(x81), 33°(x110), 47°(x158), 56°(x187), 68°(x228) -->
  <polyline
    points="28,165 78,165 79,141 81,125 83,141 84,165 107,165 108,148 110,140 112,148 113,165 155,165 156,147 158,136 160,147 161,165 184,165 185,157 187,150 189,157 190,165 225,165 226,152 228,144 230,152 231,165 268,165"
    fill="none" stroke="#111827" stroke-width="1.4" stroke-linejoin="round" stroke-linecap="round"
  />

  <!-- Pattern 2 — navy, baseline y=110, offset -55 -->
  <polyline
    points="28,110 78,110 79,88 81,72 83,88 84,110 107,110 108,94 110,85 112,94 113,110 155,110 156,93 158,82 160,93 161,110 184,110 185,103 187,97 189,103 190,110 225,110 226,98 228,90 230,98 231,110 268,110"
    fill="none" stroke="#1d4ed8" stroke-width="1.4" stroke-linejoin="round" stroke-linecap="round"
  />

  <!-- Pattern 3 — crimson, baseline y=55, offset -55 -->
  <polyline
    points="28,55 78,55 79,35 81,20 83,35 84,55 107,55 108,40 110,32 112,40 113,55 155,55 156,40 158,30 160,40 161,55 184,55 185,48 187,43 189,48 190,55 225,55 226,44 228,37 230,44 231,55 268,55"
    fill="none" stroke="#b91c1c" stroke-width="1.4" stroke-linejoin="round" stroke-linecap="round"
  />

  <!-- Subtle axis labels -->
  <text x="148" y="197" text-anchor="middle" font-size="8" fill="#9CA3AF" font-family="Arial, sans-serif">2θ (°)</text>
  <text x="12" y="100" text-anchor="middle" font-size="8" fill="#9CA3AF" font-family="Arial, sans-serif" transform="rotate(-90,12,100)">Intensity</text>
</svg>
